<?xml version="1.0" standalone="no"?>
<!DOCTYPE svg PUBLIC "-//W3C//DTD SVG 1.1//EN" "http://www.w3.org/Graphics/SVG/1.1/DTD/svg11.dtd">
<svg t="1725926625370" class="icon" viewBox="0 0 1024 1024" version="1.1"
    xmlns="http://www.w3.org/2000/svg" p-id="1313" xmlns:xlink="http://www.w3.org/1999/xlink"
    width="200" height="200" stroke="black" stroke-width="50">
    <path
        d="M426.666667 74.666667A181.333333 181.333333 0 0 0 245.333333 256v64.341333A170.666667 170.666667 0 0 0 85.333333 490.666667V768a170.666667 170.666667 0 0 0 170.666667 170.666667h512a170.666667 170.666667 0 0 0 170.666667-170.666667v-277.333333a170.666667 170.666667 0 0 0-160-170.325334V256A181.333333 181.333333 0 0 0 597.333333 74.666667h-170.666666z m245.333333 245.333333h-320V256c0-41.216 33.450667-74.666667 74.666667-74.666667h170.666666c41.216 0 74.666667 33.450667 74.666667 74.666667v64z m-107.306667 327.424l22.442667 112.213333A42.666667 42.666667 0 0 1 545.28 810.666667H478.72a42.666667 42.666667 0 0 1-41.813333-51.029334l22.4-112.213333A106.624 106.624 0 0 1 512 448a106.666667 106.666667 0 0 1 52.693333 199.424z"
        fill="#ffffff" p-id="1314"></path>
</svg>